<?xml version="1.0" encoding="utf-8"?>
<!-- Generator: Adobe Illustrator 25.2.1, SVG Export Plug-In . SVG Version: 6.00 Build 0)  -->
<svg version="1.1" id="Layer_1" xmlns="http://www.w3.org/2000/svg" xmlns:xlink="http://www.w3.org/1999/xlink" x="0px" y="0px"
	 viewBox="0 0 1086 325" style="enable-background:new 0 0 1086 325;" xml:space="preserve">
<style type="text/css">
	.st0{fill:#8334C2;}
</style>
<g>
	<path class="st0" d="M597.1,41.2c-8.3,2.9-11.7,7.7-11.6,16.8c0.6,46.4,0.3,92.8,0.3,139.1c0,3.6,0.1,7.1-0.1,10.7
		c-0.6,12.1-7.2,19.5-17.2,19.6c-10.7,0.1-18.5-7.7-18.6-19.9c-0.2-55.9-0.3-111.8,0.3-167.7c0.1-5.5,3.9-13,8.5-15.9
		c38.5-24.6,80-30,123.5-13.7c8.2,3.1,15,9.7,23.5,15.4c20-16.2,43-24.5,69.7-24.4c52.7,0.2,81.6,24.1,83.9,74.3
		c2.1,44.3,0.8,88.8,0.6,133.2c-0.1,11.7-7.9,18.9-18.2,18.7c-9.4-0.2-17.2-7.5-17.4-18.3c-0.5-32.5-0.3-65-0.4-97.5
		c0-9.5,0.3-19-0.3-28.5c-2.5-39.6-28.5-57.5-68.9-47.1c-7.5,1.9-14.5,5.9-21.2,9.8c-7.8,4.6-11.2,11.2-11.1,20.8
		c0.6,47.2,0.4,94.3,0.2,141.5c0,11.8-7.3,19.3-17.3,19.3c-10.4,0-17.5-7.4-18.1-18.8c-0.2-3.2-0.1-6.3-0.1-9.5
		c0-36.1,0-72.1,0-108.2c0-4.4,0.1-8.7-0.3-13.1c-3-29.5-20.9-45.1-52.2-44C634.7,33.8,618,33.9,597.1,41.2z"/>
	<path class="st0" d="M310,52c3-29.2,23.8-47.3,54.4-50c16.8-1.5,34.1,0.4,50.9,2.5c12.8,1.6,19,10.1,17.1,19.3s-10.9,14-23.4,12.8
		c-11.2-1-22.4-2.8-33.5-2.3c-19.7,0.9-29.9,10.5-30.6,29.2c-0.9,27.3-0.6,54.6-0.7,82c-0.1,19.4,0.1,39.5-0.1,58.9
		c-0.1,14.7-6.4,22.8-17.5,23.1c-11.9,0.4-19-8-19-22.9c-0.1-23,0-46.6,0-69.6C308.3,135,307.2,79.4,310,52z"/>
	<path class="st0" d="M501.3,115.5c0,30.1,0.1,60.2,0,90.3c-0.1,13.8-6.5,21.6-17.3,21.7c-11.5,0.1-18.3-8.1-18.3-22.2
		c-0.1-59.4-0.1-64.8,0-124.1c0-14.9,6-22.6,17.5-22.7c12.1-0.2,18.1,7.5,18.2,23.2C501.3,110.9,501.3,86.2,501.3,115.5z"/>
	<path class="st0" d="M482.8,39.8c-10.1-0.1-19.3-9.2-19.4-19.1c-0.1-11,8.5-19.4,19.8-19.4c11.3,0,20.4,8.8,20,19.2
		C503,31.1,493.6,39.9,482.8,39.8z"/>
	<path class="st0" d="M262.5,68.3c-5.7-35.7-30.7-58.1-68.8-64.8c-18.6-3.2-36.5-2.7-53.8,0.6l0,0c-7.8,1.3-13.4,7.5-13.6,15.5
		c-0.2,8.7,7.9,16.7,16.7,16.5c1.3,0,2.5-0.2,3.7-0.5l0,0c11.9-2.7,24.1-3.5,36.9-1.2c28.6,4.9,43,20.2,46,53.8
		c1.9,21.5,1,43.6-1.6,65.1c-3.1,26.6-21,41.2-49.1,43.6c-21.6,1.8-42.2-2.4-61.9-10.9c-6.1-2.6-8.6-5.9-8.4-12.5
		c0.5-19.4,0.2-38.8,0.2-58.2c0-15.7-0.2-31.5,0.1-47.2V40.7c0-9.3-8.1-17.1-18-17.3c-3-0.1-5.8,0.5-8.3,1.5l0,0
		c-20.6,9-35.4,16.7-69.4,34.6c-12.8,7-16.3,17.2-10.4,27c5.5,9.3,15.5,10.9,27.6,4.4c13.9-7.5,28.1-14.7,42.5-21.6
		c0.3,73.6,0.1,167.4,0.2,238.5v0.1c0,0.1,0,0.1,0,0.1c0,0.2,0,0.3,0,0.5h0.1c0.4,9.1,8.2,16.4,17.8,16.4s17.5-7.3,17.8-16.4h0.1
		c0.1-20.5,0-56.1,0-89.5c20,3.7,38.1,8.5,56.5,10.1c51,4.4,91.6-23.2,98.6-71.1C268.2,128.6,267.2,97.7,262.5,68.3z"/>
	<path class="st0" d="M1084.2,68.5c-1-32.1-20.2-54.7-51.5-62.7c-35.5-9.1-70.3-4.7-104,8.4c-11.1,4.3-15.2,13.3-11.8,21.9
		c3.2,8.1,12.7,11.1,24.6,7.6c0,0,31.3-10.3,62.2-10.1c26.3,0.2,41.2,12.9,44.8,36.1c0.6,4.1,0.7,8.3,0.6,12.7h0.1l0.3,45.3v0.5l0,0
		c0,0.2,0,0.5,0,0.7v1.1l0,0c0,16.3,0.5,31.2-0.4,46c-0.2,4.1-3.7,10-7.4,11.8c-26,12.7-53.5,14.7-81.2,6.2
		c-17.7-5.5-26.3-18.7-26.3-36.4c0-16.1,9.6-28.5,27.3-34.4c17.3-5.7,34.2-5.4,51.1-2.8l0,0c0.8,0.1,1.7,0.2,2.6,0.2
		c8,0,14.4-6.5,14.4-14.4c0-7-5-12.8-11.7-14.1c-22.3-3.3-44.6-3.9-67.1,2.4c-33.2,9.3-52.3,32.2-52.4,62.9
		c-0.1,33.5,18.3,58.8,52.1,67.1c43.5,10.8,85.3,3.8,124-17.5c4.8-2.6,9.6-9.8,9.7-14.9C1085,151,1085.6,109.7,1084.2,68.5z"/>
</g>
</svg>
